<?xml version="1.0" standalone="no"?>
<!DOCTYPE svg PUBLIC "-//W3C//DTD SVG 20010904//EN"
 "http://www.w3.org/TR/2001/REC-SVG-20010904/DTD/svg10.dtd">
<svg version="1.0" xmlns="http://www.w3.org/2000/svg"
 width="690.000000pt" height="115.000000pt" viewBox="0 0 690.000000 115.000000"
 preserveAspectRatio="xMidYMid meet">
<metadata>
Created by potrace 1.15, written by Peter Selinger 2001-2017
</metadata>
<g transform="translate(0.000000,115.000000) scale(0.100000,-0.100000)"
fill="#000000" stroke="none">
<path d="M2000 1139 c0 -6 -7 -9 -15 -5 -11 4 -15 -2 -14 -22 1 -17 3 -20 6
-9 7 26 23 21 23 -8 0 -17 6 -25 18 -26 9 0 4 -5 -13 -11 -59 -19 -60 -22 -10
-31 177 -32 2811 -33 2938 -2 31 8 36 25 7 25 -15 0 -19 5 -16 23 3 12 5 28 5
36 1 8 7 11 17 7 8 -3 12 -2 9 4 -3 6 -15 10 -26 10 -10 0 -19 5 -19 10 0 7
-492 10 -1455 10 -1057 0 -1455 -3 -1455 -11z"/>
<path d="M1897 960 c-120 -31 -230 -118 -283 -225 -27 -55 -29 -69 -29 -170 0
-99 3 -116 27 -168 51 -109 171 -201 299 -228 84 -18 216 -7 283 24 93 43 200
167 183 211 -9 22 -66 48 -92 42 -12 -3 -34 -24 -49 -46 -74 -112 -233 -132
-307 -40 -78 97 -76 332 4 419 88 95 253 49 287 -81 12 -44 45 -63 92 -52 40
8 48 36 48 167 0 134 -10 157 -67 157 -23 0 -45 -8 -58 -20 -21 -19 -23 -20
-66 -4 -52 19 -217 27 -272 14z m272 -62 l74 -22 22 28 c36 46 45 26 45 -100
0 -106 -1 -114 -19 -114 -14 0 -21 9 -26 31 -9 40 -78 116 -123 135 -54 22
-149 18 -197 -9 -120 -68 -163 -298 -87 -461 41 -87 88 -119 184 -124 93 -6
142 14 208 84 31 33 58 53 66 50 25 -9 15 -27 -48 -90 -89 -89 -195 -121 -321
-97 -197 36 -317 171 -317 356 0 99 27 169 91 240 107 117 257 148 448 93z"/>
<path d="M2472 944 c-15 -10 -22 -25 -22 -49 0 -39 20 -55 69 -55 l31 0 0
-275 0 -275 -34 0 c-42 0 -66 -22 -66 -60 0 -60 -1 -60 360 -60 298 0 330 2
348 18 16 13 26 47 43 135 20 113 21 119 4 137 -18 20 -69 27 -92 12 -7 -5
-25 -33 -40 -63 -37 -72 -88 -99 -185 -99 l-68 0 0 95 c0 91 1 95 19 86 19
-11 41 -59 41 -92 0 -29 29 -49 70 -49 29 0 42 5 50 19 6 12 10 96 10 205 0
180 -1 185 -22 200 -50 35 -102 9 -112 -56 -7 -40 -29 -78 -48 -78 -4 0 -8 41
-8 90 l0 90 68 0 c94 0 132 -21 153 -84 18 -55 31 -66 75 -66 54 0 64 23 64
143 0 159 30 147 -363 147 -276 0 -326 -2 -345 -16z m658 -127 c0 -52 -3 -97
-7 -100 -10 -11 -33 14 -33 35 0 11 -17 37 -38 58 -44 44 -112 63 -214 58
l-63 -3 -3 -139 -3 -139 42 6 c61 8 91 35 109 95 8 29 20 52 27 52 10 0 13
-41 13 -175 0 -143 -3 -175 -14 -175 -8 0 -17 15 -21 36 -15 81 -50 114 -120
114 l-35 0 0 -120 c0 -109 2 -122 21 -141 19 -19 30 -21 99 -17 113 7 181 41
221 114 32 55 64 74 55 32 -3 -13 -10 -50 -16 -83 -6 -33 -13 -70 -16 -82 l-4
-23 -315 0 c-294 0 -378 8 -275 25 24 4 44 14 50 25 16 29 13 572 -2 593 -7 9
-28 17 -47 20 -19 2 -37 9 -39 15 -3 9 72 12 312 12 l316 0 0 -93z"/>
<path d="M3412 944 c-23 -16 -29 -57 -13 -83 5 -8 26 -17 47 -20 l39 -6 -1
-205 c0 -127 -5 -221 -12 -246 l-12 -42 -34 34 c-30 30 -40 34 -86 34 -46 0
-56 -4 -86 -34 -87 -87 -2 -217 141 -215 66 1 109 17 152 59 73 72 93 160 93
417 l0 183 45 0 45 0 0 -265 0 -265 -33 0 c-40 0 -67 -25 -67 -63 0 -54 13
-57 234 -57 226 0 239 3 239 60 0 40 -24 60 -70 60 l-33 0 2 272 3 273 38 6
c48 8 60 20 60 60 0 58 -4 59 -353 59 -269 0 -319 -2 -338 -16z m648 -43 c0
-6 -19 -14 -42 -18 -66 -13 -68 -20 -68 -323 0 -300 1 -305 71 -316 88 -14 28
-24 -151 -24 -181 0 -240 10 -150 25 24 4 44 14 50 25 6 11 10 137 10 309 l0
291 -94 0 -94 0 -4 -242 c-5 -270 -13 -310 -72 -372 -60 -64 -162 -72 -218
-16 -50 51 -33 116 33 126 45 8 79 -21 79 -65 0 -69 65 -39 99 44 22 55 24 78
29 272 5 240 1 259 -60 265 -17 2 -33 9 -36 16 -3 9 63 12 307 12 188 0 311
-4 311 -9z"/>
<path d="M4203 950 c-19 -8 -23 -17 -23 -49 0 -45 18 -61 69 -61 l31 0 0 -275
0 -275 -31 0 c-51 0 -69 -16 -69 -60 0 -29 5 -42 19 -50 11 -5 82 -10 160 -10
154 0 171 6 171 59 0 36 -28 61 -68 61 l-32 0 1 163 0 162 20 -40 c11 -22 55
-116 98 -210 84 -181 103 -204 154 -191 23 5 42 36 137 224 l109 217 0 -162 1
-163 -34 0 c-42 0 -66 -22 -66 -60 0 -57 12 -60 231 -60 119 0 208 4 220 10
14 8 19 21 19 50 0 44 -18 60 -69 60 l-31 0 0 275 0 275 31 0 c48 0 69 16 69
53 0 60 -5 62 -161 65 -218 5 -189 25 -305 -209 l-99 -201 -90 197 c-69 151
-95 199 -113 206 -30 12 -320 11 -349 -1z m407 -202 c40 -90 89 -197 108 -238
l35 -75 117 235 116 235 142 3 c110 2 142 0 142 -10 0 -8 -14 -14 -33 -15 -65
-5 -67 -14 -67 -313 0 -148 4 -280 9 -293 7 -19 20 -27 50 -32 90 -15 33 -25
-144 -25 -176 0 -234 10 -145 25 24 4 44 14 50 25 6 11 10 128 9 287 l0 268
-152 -303 c-101 -201 -157 -302 -166 -300 -8 2 -77 141 -155 310 l-141 306 -3
-274 c-1 -170 2 -282 8 -293 6 -12 26 -22 50 -26 78 -13 38 -25 -85 -25 -124
0 -163 12 -84 25 30 5 43 13 50 32 5 13 9 145 9 293 0 296 -2 305 -64 313 -17
2 -32 9 -34 15 -3 9 37 12 150 12 l154 0 74 -162z"/>
<path d="M2220 110 c-102 -3 -193 -9 -202 -14 -13 -6 -18 -20 -18 -52 l0 -44
1465 0 c1458 0 1465 0 1465 20 0 11 -4 20 -10 20 -14 0 -12 28 3 33 17 6 2 19
-30 25 -107 19 -2133 28 -2673 12z"/>
</g>
</svg>
